<?xml version="1.0" encoding="UTF-8"?>
<svg version="1.1" xmlns="http://www.w3.org/2000/svg" width="64" height="64">
<path d="M0 0 C5.28 0 10.56 0 16 0 C16 9.24 16 18.48 16 28 C18.97 28 21.94 28 25 28 C25.63296381 32.28260618 24.88338312 34.59222857 22.4453125 38.015625 C21.35311525 39.43839043 20.24579284 40.84965014 19.125 42.25 C18.29162109 43.32894531 18.29162109 43.32894531 17.44140625 44.4296875 C11.66359876 51.86426389 11.66359876 51.86426389 8.25 52.5625 C3.33899139 51.71251774 1.84304648 48.88907301 -1 45 C-1.7115625 44.10796875 -2.423125 43.2159375 -3.15625 42.296875 C-9.5192469 34.09667477 -9.5192469 34.09667477 -9 28 C-6.03 28 -3.06 28 0 28 C0 18.76 0 9.52 0 0 Z M2 3 C1.91241997 4.99964982 1.89303424 7.0023611 1.90234375 9.00390625 C1.90556641 10.21884766 1.90878906 11.43378906 1.91210938 12.68554688 C1.92048828 13.96494141 1.92886719 15.24433594 1.9375 16.5625 C1.94201172 17.84576172 1.94652344 19.12902344 1.95117188 20.45117188 C1.96300455 23.63416022 1.97948932 26.81705762 2 30 C-0.64 30 -3.28 30 -6 30 C-4.42686828 34.72843614 -1.79358765 38.3433843 1.125 42.3125 C1.59292969 42.95767578 2.06085937 43.60285156 2.54296875 44.26757812 C3.6905929 45.84848894 4.84465477 47.42472301 6 49 C8.30563575 49.11218074 8.30563575 49.11218074 11 48 C13.26210105 45.57112925 15.0123043 42.84330964 16.8125 40.0625 C17.31458984 39.32064453 17.81667969 38.57878906 18.33398438 37.81445312 C21.03022397 34.20058129 21.03022397 34.20058129 22 30 C19.36 30 16.72 30 14 30 C14.00523682 29.18732666 14.01047363 28.37465332 14.01586914 27.53735352 C14.03656994 23.87907678 14.04963803 20.22081233 14.0625 16.5625 C14.07087891 15.28310547 14.07925781 14.00371094 14.08789062 12.68554688 C14.09111328 11.47060547 14.09433594 10.25566406 14.09765625 9.00390625 C14.10289307 7.87799072 14.10812988 6.7520752 14.11352539 5.59204102 C14.29545448 3.07029129 14.29545448 3.07029129 13 2 C11.33570949 1.90176063 9.66718069 1.87026369 8 1.875 C7.0925 1.87242188 6.185 1.86984375 5.25 1.8671875 C3.03033389 1.74826221 3.03033389 1.74826221 2 3 Z " fill="#7545FF" transform="translate(24,6)"/>
<path d="M0 0 C1.32 0 2.64 0 4 0 C4 8.91 4 17.82 4 27 C6.31 27 8.62 27 11 27 C10.65986985 32.44208234 7.29703472 35.93668198 4 40 C0.83356885 39.68713287 -0.6107381 39.42388172 -2.80078125 37.0390625 C-3.29964844 36.24242187 -3.79851563 35.44578125 -4.3125 34.625 C-4.82425781 33.83351562 -5.33601563 33.04203125 -5.86328125 32.2265625 C-7 30 -7 30 -7 27 C-4.69 27 -2.38 27 0 27 C0 18.09 0 9.18 0 0 Z " fill="#B8B5FF" transform="translate(30,12)"/>
</svg>
